<svg xmlns="http://www.w3.org/2000/svg" id="Layer_1" data-name="Layer 1" viewBox="92.75 59.57 214.51 247.69">
  <defs>
    <style>
      .cls-1 {
        fill: #008bd6;
      }
    </style>
  </defs>
  <path class="cls-1" d="M215.79,68.68l-15.79-9.11-107.25,61.92v123.84s44.27,25.56,44.27,25.56l3.71-133.82,72.82,44.65,2.22-113.03ZM202.31,91.97l-82.79,45.09v90.09l14.01,7.83v16.96l-28.81-16.1v-107.56l97.59-53.15v16.85Z"/>
  <path class="cls-1" d="M253.74,90.6l-7.94,2.09-2.38,140.62-73.76-44.94-1.49,100.51,31.84,18.38,107.25-61.92v-123.84s-53.51-30.89-53.51-30.89ZM296.07,237.95l-97.59,53.15v-16.85l82.79-45.09v-90.09l-14.01-7.83v-16.96l28.81,16.1v107.56Z"/>
</svg>