<?xml version="1.0" encoding="UTF-8"?>
<svg version="1.1" xmlns="http://www.w3.org/2000/svg" width="365" height="418">
<path d="M0 0 C1.51534367 0.86056966 3.02289617 1.73496605 4.5234375 2.62109375 C5.31886963 3.07709961 6.11430176 3.53310547 6.93383789 4.00292969 C9.26310039 5.34201415 11.58192075 6.69760788 13.8984375 8.05859375 C15.03925781 8.72246094 16.18007813 9.38632813 17.35546875 10.0703125 C19.30286027 11.20607819 21.24826595 12.34525754 23.19140625 13.48828125 C26.71405277 15.53172122 30.28931888 17.46890548 33.87109375 19.40625 C39.55445269 22.50826397 45.18344418 25.70762944 50.82226562 28.88964844 C53.46083179 30.37523814 56.10425449 31.85198187 58.75030655 33.32419324 C60.06375783 34.06221174 61.37233055 34.80904842 62.67363268 35.5682838 C66.15964242 37.59271884 69.62135717 39.40804115 73.33222866 40.9870491 C84.41762126 46.01388229 84.41762126 46.01388229 86.8719151 51.06016445 C88.45113143 56.97013344 88.11608825 63.03817965 87.95532227 69.10058594 C87.96363296 71.13175083 87.97931756 73.16289684 88.00178528 75.19395447 C88.04072366 80.68962116 87.97396407 86.17935924 87.88558698 91.67426586 C87.80885098 97.43023845 87.82256617 103.18605942 87.82444763 108.94244385 C87.8142131 118.6037516 87.7386154 128.26278134 87.62036133 137.92333984 C87.48412735 149.09043084 87.43505885 160.25516659 87.4361549 171.42303538 C87.43660797 183.32134004 87.37610343 195.21875334 87.29635501 207.11676121 C87.2773456 210.54263592 87.26944483 213.96838934 87.26388741 217.39431 C87.25195505 222.77632134 87.19899931 228.1564402 87.11428642 233.53778267 C87.08933322 235.51213989 87.07786598 237.48672052 87.08087158 239.46123314 C87.09022312 254.38883131 87.09022312 254.38883131 84.13079643 258.53516388 C82.08623043 260.10571853 80.28510449 261.11298402 77.8984375 262.05859375 C77.04378906 262.5690625 76.18914062 263.07953125 75.30859375 263.60546875 C74.14650391 264.20101562 74.14650391 264.20101562 72.9609375 264.80859375 C68.26247681 267.29942154 63.66280544 269.91597421 59.0859375 272.62109375 C58.02185669 273.24987427 58.02185669 273.24987427 56.9362793 273.89135742 C55.41242826 274.79289583 53.88892305 275.69501898 52.36572266 276.59765625 C49.72609719 278.1606405 47.08397692 279.71934455 44.44140625 281.27734375 C35.02985937 286.82843161 25.63026179 292.39623394 16.28515625 298.05859375 C13.77609043 299.54030275 11.2611972 300.97576283 8.7109375 302.3828125 C3.15539261 305.45080872 -2.31402325 308.66227795 -7.7890625 311.87109375 C-14.4762546 315.78446768 -21.16810997 319.68485408 -27.9140625 323.49609375 C-32.91723273 326.33770014 -37.76794884 329.36110179 -42.6015625 332.48046875 C-45.54638488 334.33938788 -48.55681635 336.02864336 -51.61328125 337.6953125 C-59.75526317 342.15614718 -67.77300812 346.83385427 -75.7265625 351.62109375 C-76.34917969 351.99379395 -76.97179687 352.36649414 -77.61328125 352.75048828 C-80.60736033 354.54489574 -83.58590578 356.35768154 -86.5390625 358.21875 C-87.5909375 358.86714844 -88.6428125 359.51554687 -89.7265625 360.18359375 C-90.64695313 360.76367188 -91.56734375 361.34375 -92.515625 361.94140625 C-95.68177446 363.30925934 -96.82196247 362.97655489 -100.1015625 362.05859375 C-102.51416016 360.84692383 -102.51416016 360.84692383 -105.015625 359.328125 C-105.94246094 358.77189453 -106.86929688 358.21566406 -107.82421875 357.64257812 C-108.78199219 357.05798828 -109.73976562 356.47339844 -110.7265625 355.87109375 C-117.24023272 351.93144631 -123.777265 348.10055154 -130.47705078 344.48510742 C-134.43683021 342.33282917 -138.33640752 340.08370244 -142.2265625 337.80859375 C-142.979375 337.37546875 -143.7321875 336.94234375 -144.5078125 336.49609375 C-145.22195312 336.0784375 -145.93609375 335.66078125 -146.671875 335.23046875 C-147.30883301 334.86018555 -147.94579102 334.48990234 -148.60205078 334.10839844 C-150.1015625 333.05859375 -150.1015625 333.05859375 -151.1015625 331.05859375 C-151.18762943 328.4413933 -151.21279774 325.85355836 -151.18920898 323.23681641 C-151.18534652 322.43617075 -151.18148405 321.63552509 -151.17750454 320.81061745 C-151.11651923 311.27442764 -150.91040068 301.74083583 -150.69921875 292.20703125 C-150.65692051 290.23124049 -150.61480044 288.25544591 -150.57284546 286.27964783 C-150.46168713 281.06683675 -150.34823834 275.85407823 -150.2341423 270.64133072 C-150.04682989 262.06754893 -149.862745 253.49369663 -149.67783546 244.91986275 C-149.60970613 241.76533182 -149.54127886 238.61080745 -149.4728241 235.45628357 C-149.22620171 224.06226301 -148.99204384 212.6681791 -148.78125 201.2734375 C-148.73822298 198.99755816 -148.69517429 196.72167922 -148.65209961 194.44580078 C-148.59551368 191.44695297 -148.5403489 188.44812143 -148.49026489 185.44915771 C-148.44661105 182.83580831 -148.39773863 180.22260768 -148.34765625 177.609375 C-148.3372934 176.88177475 -148.32693054 176.1541745 -148.31625366 175.40452576 C-148.24925185 172.15583327 -148.08795768 169.16884434 -147.1015625 166.05859375 C-143.4682268 166.62491052 -140.89794128 167.54683228 -137.7890625 169.49609375 C-136.47615234 170.31013672 -136.47615234 170.31013672 -135.13671875 171.140625 C-134.13511719 171.77355469 -133.13351563 172.40648437 -132.1015625 173.05859375 C-129.64449906 174.60228744 -127.18549946 176.14288664 -124.7265625 177.68359375 C-123.71311768 178.31998779 -123.71311768 178.31998779 -122.67919922 178.96923828 C-117.29772299 182.33839183 -111.8658001 185.61711286 -106.4140625 188.87109375 C-98.43475336 193.63399699 -90.52035723 198.49363695 -82.62866211 203.40014648 C-76.83422246 206.99862674 -71.00637544 210.53387185 -65.14599609 214.02368164 C-61.52824474 216.18399028 -57.95825377 218.40482497 -54.4140625 220.68359375 C-49.74260813 223.68272274 -44.98721162 226.50622626 -40.1796875 229.28125 C-35.90383666 231.75017403 -31.65454019 234.26403493 -27.40234375 236.7734375 C-25.39528624 238.13986962 -25.39528624 238.13986962 -24.1015625 238.05859375 C-23.80430539 225.68372375 -23.51342595 213.30870891 -23.2265625 200.93359375 C-23.20437275 199.97681355 -23.182183 199.02003334 -23.15932083 198.0342598 C-22.26088536 159.21070664 -21.52896027 120.3847977 -20.85829926 81.55669022 C-20.76191218 75.98308991 -20.66453697 70.40950737 -20.56640625 64.8359375 C-20.5383276 63.24017128 -20.5383276 63.24017128 -20.5096817 61.61216736 C-20.15140632 41.42459552 -19.66488794 21.24142327 -19.1015625 1.05859375 C-17.66558205 0.56542768 -16.22832022 0.07599159 -14.79052734 -0.41186523 C-13.59017349 -0.82129616 -13.59017349 -0.82129616 -12.36557007 -1.23899841 C-7.51903715 -2.74263416 -4.42520603 -2.27699892 0 0 Z M15.8984375 36.05859375 C15.7745759 40.11515656 15.68398017 44.17098353 15.6237793 48.22900391 C15.5986782 49.60843077 15.56458877 50.98772517 15.52124023 52.36669922 C15.46040875 54.35195247 15.43485813 56.33818734 15.41015625 58.32421875 C15.38397217 59.51821289 15.35778809 60.71220703 15.33081055 61.94238281 C15.61962909 65.20820524 15.61962909 65.20820524 18.15454102 67.30688477 C19.51276978 68.17398071 19.51276978 68.17398071 20.8984375 69.05859375 C21.62579102 69.53643311 22.35314453 70.01427246 23.10253906 70.5065918 C23.8240918 70.94011963 24.54564453 71.37364746 25.2890625 71.8203125 C26.08054687 72.29919922 26.87203125 72.77808594 27.6875 73.27148438 C28.90566406 74.00141602 28.90566406 74.00141602 30.1484375 74.74609375 C31.77937399 75.72795816 33.40962079 76.71096943 35.0390625 77.6953125 C35.75610352 78.12545654 36.47314453 78.55560059 37.21191406 78.9987793 C38.8984375 80.05859375 38.8984375 80.05859375 39.8984375 81.05859375 C40.16375566 84.8286841 40.05697179 88.62442609 40.046875 92.40234375 C40.04365738 94.34059021 40.04365738 94.34059021 40.04037476 96.31799316 C39.95257689 118.39972253 39.29369454 140.47944059 38.7265625 162.55273438 C38.57134419 168.60949194 38.42515993 174.66640271 38.28361285 180.7234931 C38.14535487 186.61732853 37.99693675 192.5108803 37.84473801 198.40437317 C37.78193402 200.88898822 37.72214838 203.37368153 37.66548538 205.85844421 C37.58599266 209.30760962 37.49489358 212.75628223 37.40087891 216.20507812 C37.38001724 217.22106079 37.35915558 218.23704346 37.33766174 219.28381348 C37.19169273 224.19051512 36.99726419 228.52503235 34.8984375 233.05859375 C32.4140625 234.75390625 32.4140625 234.75390625 29.1484375 236.18359375 C27.87802471 236.76740695 26.60994959 237.35632322 25.34375 237.94921875 C24.28849121 238.43938477 24.28849121 238.43938477 23.21191406 238.93945312 C18.72975389 241.10769102 14.38544502 243.53524039 10.0234375 245.93359375 C9.07694336 246.45155518 8.13044922 246.9695166 7.15527344 247.50317383 C1.54381779 250.58118544 -4.03702734 253.70926949 -9.6015625 256.87109375 C-14.37060948 259.5806979 -19.17774454 262.13549865 -24.1015625 264.55859375 C-28.89669807 266.91861573 -33.58602478 269.41004758 -38.2265625 272.05859375 C-45.57583624 276.24806591 -53.01522447 280.26025508 -60.4765625 284.24609375 C-61.6751373 284.88694963 -62.87370498 285.52781882 -64.07226562 286.16870117 C-69.00568795 288.80566055 -73.94059938 291.43982151 -78.87695312 294.07128906 C-81.33131781 295.37991301 -83.78462272 296.69048628 -86.23681641 298.00317383 C-88.52394235 299.22737983 -90.81262708 300.44867907 -93.10302734 301.66674805 C-94.12605957 302.21500244 -95.1490918 302.76325684 -96.203125 303.328125 C-97.55398193 304.04899292 -97.55398193 304.04899292 -98.93212891 304.78442383 C-101.21153689 306.0008251 -101.21153689 306.0008251 -103.1015625 308.05859375 C-103.27644504 310.49604272 -103.33333655 312.81795455 -103.296875 315.25390625 C-103.2940451 315.96134979 -103.29121521 316.66879333 -103.28829956 317.39767456 C-103.27709387 319.65981885 -103.25198929 321.9215689 -103.2265625 324.18359375 C-103.21653317 325.71614012 -103.20740724 327.24869269 -103.19921875 328.78125 C-103.17715336 332.54051676 -103.14262146 336.29948839 -103.1015625 340.05859375 C-102.4415625 340.38859375 -101.7815625 340.71859375 -101.1015625 341.05859375 C-98.34630029 339.98822747 -98.34630029 339.98822747 -95.1640625 338.30859375 C-94.55433594 337.99857422 -93.94460937 337.68855469 -93.31640625 337.36914062 C-87.12595666 334.16909746 -81.1327173 330.63381769 -75.12646484 327.10400391 C-70.58646228 324.44969499 -66.03101994 321.96654811 -61.2890625 319.68359375 C-55.01765158 316.63979056 -49.07961876 313.14099857 -43.1015625 309.55859375 C-36.15169173 305.39567368 -29.2294041 301.51998589 -21.93359375 298 C-16.62765816 295.37415567 -11.50116974 292.41280121 -6.3515625 289.49609375 C-5.39258057 288.95339844 -4.43359863 288.41070312 -3.44555664 287.8515625 C1.95227177 284.78013523 7.30321265 281.6422847 12.61206055 278.41943359 C18.2313185 275.07488006 24.02701881 272.04079036 29.8125 268.99609375 C31.23703847 268.2462064 32.66151607 267.49620339 34.0859375 266.74609375 C34.80442871 266.36783447 35.52291992 265.9895752 36.26318359 265.59985352 C42.08201565 262.52237524 47.82876106 259.32781018 53.5456543 256.06518555 C56.44657495 254.41397406 59.13437094 252.97551477 62.29296875 251.86328125 C63.58267578 250.96996094 63.58267578 250.96996094 64.8984375 250.05859375 C66.08221259 243.00476331 66.09348315 235.91240118 66.1796875 228.7734375 C66.19777969 227.56067139 66.21587189 226.34790527 66.23451233 225.09838867 C66.283258 221.76391755 66.32806681 218.42943912 66.37096024 215.09489059 C66.41753642 211.53725993 66.46879348 207.97969595 66.51928711 204.42211914 C66.61728654 197.45234961 66.70990609 190.48251759 66.80067158 183.51265049 C66.87819569 177.56960214 66.95828997 171.62659211 67.03955078 165.68359375 C67.17206826 155.98112839 67.30056379 146.27861404 67.42709351 136.57606888 C67.46040271 134.03686182 67.49429401 131.49766312 67.52832031 128.95846558 C67.53915712 128.14073575 67.54999393 127.32300592 67.56115913 126.48049641 C67.58281207 124.84919479 67.60477621 123.21789727 67.62705803 121.58660412 C67.67953375 117.63245363 67.72185575 113.67868388 67.74197388 109.72422791 C67.78178705 102.84933243 67.86598385 96.00057349 68.25719929 89.13532543 C68.41945352 86.18464756 68.53326291 83.23306544 68.64146233 80.27997017 C68.73524201 78.25318478 68.89818358 76.2299668 69.06336975 74.20774841 C69.18626141 70.41626811 69.14928904 67.64552612 67.8984375 64.05859375 C63.93885956 60.41417613 59.79281295 58.3153899 54.8984375 56.05859375 C53.14235989 55.11144318 51.39100002 54.15538522 49.6484375 53.18359375 C48.771875 52.714375 47.8953125 52.24515625 46.9921875 51.76171875 C41.56183093 48.77228003 36.24716848 45.5844288 30.9140625 42.42578125 C30.24181641 42.03100586 29.56957031 41.63623047 28.87695312 41.22949219 C27.56602967 40.45367915 26.26242808 39.66534829 24.96679688 38.86425781 C21.56323879 36.80363718 19.98858449 36.05859375 15.8984375 36.05859375 Z " fill="#0189D4" transform="translate(279.1015625,54.94140625)"/>
<path d="M0 0 C3.38055032 1.50672826 6.5238389 3.31030337 9.66015625 5.26171875 C10.58634766 5.82342773 10.58634766 5.82342773 11.53125 6.39648438 C12.78198087 7.16110644 14.01943606 7.94793473 15.24156189 8.75749207 C17.37776532 10.13397476 17.37776532 10.13397476 19.75001526 11.02082825 C22.65733111 12.39423178 24.3573234 13.57648407 26.41015625 16.07421875 C27.63009204 21.88327906 27.21800097 27.58226431 26.921875 33.48046875 C26.86559169 35.27893918 26.81351907 37.07754558 26.76533508 38.87625122 C26.62365769 43.75979503 26.42691723 48.63975162 26.2208252 53.52094269 C26.01465018 58.63188388 25.85918333 63.74431416 25.70117188 68.85693359 C25.50032314 75.26855736 25.2951178 81.67989406 25.068573 88.09066772 C24.51853836 103.73199201 24.1432455 119.3710981 23.8671875 135.01953125 C23.82759653 137.2078666 23.78793948 139.39620076 23.74821472 141.58453369 C23.59566969 150.05424443 23.44660525 158.52400753 23.30429077 166.99389648 C23.22046451 171.93029014 23.12682027 176.86641008 23.02608299 181.80248642 C22.99075064 183.61999818 22.95898496 185.43758314 22.93096352 187.25522232 C22.89256632 189.72982296 22.84232552 192.20390413 22.7890625 194.67822266 C22.78069209 195.40566933 22.77232168 196.133116 22.76369762 196.88260651 C22.63831339 201.84606161 22.63831339 201.84606161 20.41015625 204.07421875 C16.36429156 202.59691192 12.85703719 200.64807838 9.18359375 198.40625 C8.59526764 198.04834885 8.00694153 197.69044769 7.40078735 197.32170105 C6.15755127 196.56446211 4.91541334 195.80541762 3.67431641 195.04467773 C1.81379417 193.90427234 -0.04977437 192.76900188 -1.9140625 191.63476562 C-10.7405754 186.25525979 -19.56202379 180.85716806 -28.08984375 175.01171875 C-31.19592616 172.92456285 -34.34895319 171.08176038 -37.65234375 169.32421875 C-44.52427377 165.65278201 -51.052132 161.46322551 -57.63378906 157.30273438 C-60.51918124 155.49054099 -63.42988849 153.72170948 -66.33984375 151.94921875 C-70.53708486 149.37905629 -74.64261 146.7128941 -78.71484375 143.94921875 C-83.38041073 140.80382326 -88.13947349 138.01868213 -93.1171875 135.3984375 C-95.66102462 134.03609819 -98.12043367 132.56635214 -100.58984375 131.07421875 C-100.6126088 132.21603607 -100.63537384 133.35785339 -100.65882874 134.53427124 C-101.30286172 166.6910825 -102.03928321 198.84518521 -102.8371582 230.99853516 C-102.96413315 236.12153599 -103.089072 241.24458006 -103.2121582 246.36767578 C-104.06775576 281.94836575 -105.17462991 317.5112533 -106.58984375 353.07421875 C-108.44140625 354.14453125 -108.44140625 354.14453125 -110.58984375 355.07421875 C-112.96484375 353.94921875 -112.96484375 353.94921875 -115.58984375 352.07421875 C-119.34053404 349.52769745 -122.99883059 347.27779245 -127.08984375 345.32421875 C-133.29638418 342.30915518 -139.2105812 338.87399387 -145.16235352 335.39257812 C-151.42625149 331.73291167 -157.74054969 328.17715872 -164.10009766 324.68652344 C-165.44844974 323.94404589 -166.7857991 323.1811672 -168.1102581 322.39686203 C-170.61885789 320.98121247 -170.61885789 320.98121247 -173.59956551 319.99788284 C-177.3367289 318.42477748 -179.75290245 316.99534653 -182.58984375 314.07421875 C-184.90011875 307.87932429 -184.1231394 300.72491003 -183.98388672 294.23339844 C-183.9837759 292.18799231 -183.98892476 290.14258014 -183.99893188 288.09719849 C-184.01091036 282.55091744 -183.94862104 277.00768309 -183.87243414 271.46200466 C-183.80480586 265.66059788 -183.80367475 259.8591741 -183.79495239 254.05743408 C-183.77104309 244.31900169 -183.70343629 234.58170261 -183.60498047 224.84375 C-183.46611607 211.09987526 -183.40747914 197.35650728 -183.36417937 183.61204672 C-183.32760343 172.94832071 -183.26872395 162.28469948 -183.20703125 151.62109375 C-183.20068838 150.47534598 -183.1943455 149.32959822 -183.18781042 148.14913082 C-183.15021717 141.57158995 -183.10153534 134.99430823 -183.03557968 128.41698837 C-183.01691073 126.42192549 -183.00157373 124.42682832 -182.98975372 122.4317131 C-182.97289173 119.71574128 -182.94372935 117.00018439 -182.91110229 114.28436279 C-182.90874254 113.48855891 -182.90638279 112.69275503 -182.90395153 111.87283587 C-182.84451148 108.08056046 -182.74494072 106.30686421 -180.58984375 103.07421875 C-178.38598633 101.69287109 -178.38598633 101.69287109 -175.671875 100.28515625 C-174.68268066 99.76276367 -173.69348633 99.24037109 -172.67431641 98.70214844 C-171.65644043 98.16493164 -170.63856445 97.62771484 -169.58984375 97.07421875 C-167.71469496 96.03200219 -165.84352083 94.98259956 -163.9765625 93.92578125 C-163.04658447 93.39992432 -162.11660645 92.87406738 -161.15844727 92.33227539 C-159.73230103 91.52391235 -159.73230103 91.52391235 -158.27734375 90.69921875 C-157.26534912 90.1261499 -156.25335449 89.55308105 -155.21069336 88.96264648 C-152.33645838 87.33425838 -149.46304808 85.70442447 -146.58984375 84.07421875 C-145.92049805 83.69507324 -145.25115234 83.31592773 -144.56152344 82.92529297 C-135.45989203 77.76804446 -126.4308538 72.48791795 -117.39916992 67.20947266 C-112.10286351 64.11598126 -106.79932398 61.0388756 -101.46484375 58.01171875 C-88.4097889 50.58136317 -75.43870151 42.97005725 -62.734375 34.953125 C-59.08039747 32.76981668 -55.34958015 30.75517707 -51.60766602 28.72729492 C-46.4104585 25.88041424 -41.28334809 22.91326618 -36.15234375 19.94921875 C-34.46685425 18.98048828 -34.46685425 18.98048828 -32.74731445 17.9921875 C-27.32716955 14.86534326 -21.94191811 11.7006044 -16.62890625 8.39453125 C-15.72068115 7.83266113 -14.81245605 7.27079102 -13.87670898 6.69189453 C-12.18326479 5.63800505 -10.49739209 4.5718192 -8.82055664 3.49169922 C-3.35528527 0.09615448 -3.35528527 0.09615448 0 0 Z M-4.96484375 29.19921875 C-14.17700664 34.43785684 -23.48973661 39.48408206 -32.81835938 44.51171875 C-43.33463181 50.18469107 -53.78615463 55.96198533 -64.19799805 61.82421875 C-72.56369091 66.52479776 -80.98735108 71.11165583 -89.44921875 75.63671875 C-94.82484945 78.52377076 -100.10110426 81.52380667 -105.30908203 84.70410156 C-111.79128137 88.59813953 -118.52978107 92.04675174 -125.22631836 95.5534668 C-132.68461448 99.46012185 -140.10602817 103.42020212 -147.46484375 107.51171875 C-148.20742432 107.92454102 -148.95000488 108.33736328 -149.71508789 108.76269531 C-151.67787657 109.85919495 -153.63934463 110.95599547 -155.58984375 112.07421875 C-156.44108889 112.44329377 -157.29233402 112.81236879 -158.16937447 113.19262791 C-160.91740838 114.90522619 -160.91740838 114.90522619 -161.22349358 118.25893307 C-161.25319762 119.5988077 -161.25513507 120.93946125 -161.23580933 122.27952576 C-161.24487057 123.01838975 -161.25393181 123.75725373 -161.26326764 124.51850754 C-161.28761337 127.00164323 -161.2762553 129.48334107 -161.26513672 131.96655273 C-161.27522294 133.74374706 -161.28748756 135.52093017 -161.30177307 137.2980957 C-161.33428089 142.13078909 -161.33582348 146.96305729 -161.3316741 151.79584002 C-161.33227073 156.84826631 -161.36022349 161.90054132 -161.38504028 166.95289612 C-161.42286303 175.43939631 -161.44238523 183.92577415 -161.44921875 192.41235352 C-161.45891298 204.38417965 -161.50310016 216.35570051 -161.55344558 228.32741439 C-161.58698648 236.61356161 -161.61218218 244.89973756 -161.63585901 253.18591809 C-161.64165354 255.19670343 -161.64769042 257.20748808 -161.65396643 259.21827197 C-161.67159553 264.95152071 -161.6840391 270.68473173 -161.68801689 276.4180069 C-161.68993107 278.15628139 -161.69354406 279.89455495 -161.69896507 281.63282204 C-161.70598662 284.00254813 -161.70673603 286.37219371 -161.70578003 288.7419281 C-161.70917322 289.43249202 -161.71256641 290.12305593 -161.71606243 290.83454603 C-161.7272297 295.54739475 -161.7272297 295.54739475 -160.58984375 300.07421875 C-158.40255329 301.66757288 -158.40255329 301.66757288 -155.65234375 302.94921875 C-152.02132812 304.81819222 -148.45266112 306.69911143 -144.96484375 308.82421875 C-140.31335574 311.64194706 -135.64534389 314.43001568 -130.96484375 317.19921875 C-130.26020996 317.61913086 -129.55557617 318.03904297 -128.82958984 318.47167969 C-121.10191819 323.63056738 -121.10191819 323.63056738 -112.58984375 326.07421875 C-112.25984375 324.42421875 -111.92984375 322.77421875 -111.58984375 321.07421875 C-110.59984375 320.74421875 -109.60984375 320.41421875 -108.58984375 320.07421875 C-108.58984375 318.09421875 -108.58984375 316.11421875 -108.58984375 314.07421875 C-109.57984375 314.07421875 -110.56984375 314.07421875 -111.58984375 314.07421875 C-111.48542969 312.98882812 -111.38101563 311.9034375 -111.2734375 310.78515625 C-110.51183837 302.99309266 -110.51183837 302.99309266 -113.1015625 295.95703125 C-115.51607411 294.37711053 -117.95128644 293.24534312 -120.58984375 292.07421875 C-122.43933101 291.05359869 -124.26071588 289.99132833 -126.08349609 288.92382812 C-127.89512217 287.8649696 -129.7199253 286.83375031 -131.55078125 285.80859375 C-133.60639229 284.63546868 -135.62054414 283.38708516 -137.58984375 282.07421875 C-137.80089325 279.40066555 -137.81871874 276.97344185 -137.69921875 274.30859375 C-137.6755574 273.505961 -137.65189606 272.70332825 -137.6275177 271.87637329 C-137.5454539 269.19168513 -137.44231916 266.50819915 -137.33984375 263.82421875 C-137.27818991 261.91362759 -137.21824488 260.0029806 -137.15991211 258.09228516 C-137.0680724 255.09951147 -136.97479926 252.10683588 -136.87583923 249.11428833 C-136.62791286 241.61593033 -136.44716461 234.11828057 -136.31047058 226.61712646 C-136.22664629 222.03824706 -136.12916572 217.46062552 -135.9987793 212.8828125 C-135.7310842 203.19238339 -135.56518722 193.5183252 -135.66194248 183.82409096 C-135.718061 177.9958243 -135.71176889 172.16940267 -135.66938686 166.34103966 C-135.64687158 162.7417048 -135.65714286 159.14893075 -135.74539185 155.55047607 C-136.25838651 133.50906368 -136.25838651 133.50906368 -131.93878174 127.94903564 C-127.74471312 124.44865631 -123.02642762 122.5876911 -117.88595581 120.87915039 C-114.59753539 119.72635228 -111.78594482 118.11084797 -108.76171875 116.37890625 C-106.62187132 115.23422231 -104.48123417 114.09101355 -102.33984375 112.94921875 C-101.1597582 112.31833227 -99.97974741 111.68730592 -98.79980469 111.05615234 C-92.43264292 107.65189251 -86.05922322 104.2594628 -79.68359375 100.87109375 C-63.40923371 92.24270814 -63.40923371 92.24270814 -47.30224609 83.30761719 C-34.55094287 76.05775866 -21.68545229 69.01932031 -8.52734375 62.53515625 C-1.03982795 59.44727185 -1.03982795 59.44727185 4.41015625 54.07421875 C5.05781591 44.47361668 4.00087331 34.6628225 3.41015625 25.07421875 C0.71796294 25.07421875 -2.59258509 27.84612057 -4.96484375 29.19921875 Z " fill="#0289D4" transform="translate(182.58984375,-0.07421875)"/>
<path d="M0 0 C0.33 0 0.66 0 1 0 C1.04936158 5.09031755 1.08570105 10.18049643 1.10986328 15.27099609 C1.11993376 17.00344265 1.13359089 18.73587216 1.15087891 20.46826172 C1.17508162 22.95544639 1.18647239 25.44240675 1.1953125 27.9296875 C1.20563507 28.70682098 1.21595764 29.48395447 1.22659302 30.28463745 C1.22699271 32.19125493 1.1223214 34.09731036 1 36 C0.34 36.66 -0.32 37.32 -1 38 C-4.37503669 36.8141763 -6.64722731 35.72426311 -9 33 C-3.25 34.875 -3.25 34.875 -1 36 C-1.01160156 35.07703125 -1.02320313 34.1540625 -1.03515625 33.203125 C-1.1119199 22.10529441 -0.63563533 11.07821577 0 0 Z " fill="#1286C8" transform="translate(204,166)"/>
<path d="M0 0 C0.66 0.33 1.32 0.66 2 1 C-6.19910847 7.03417533 -6.19910847 7.03417533 -9 8 C-10.34279852 7.70711603 -11.67851173 7.37756808 -13 7 C-10.88002166 5.80266012 -8.75486324 4.61701287 -6.625 3.4375 C-6.02171875 3.09525391 -5.4184375 2.75300781 -4.796875 2.40039062 C-3.23021759 1.53872905 -1.61709138 0.76281817 0 0 Z " fill="#0C85C9" transform="translate(199,384)"/>
</svg>
